<!DOCTYPE svg PUBLIC "-//W3C//DTD SVG 1.1//EN" "http://www.w3.org/Graphics/SVG/1.1/DTD/svg11.dtd">
<svg xmlns="http://www.w3.org/2000/svg" viewBox="0 0 744 126">
<path d="M174 16.691c-18.135 3.036-21 8.805-21 42.286 0 26.863.795 30.98 7.013 36.302 12.541 10.735 41.27 7.778 47.559-4.894 3.376-6.804 3.436-54.504.077-61.841-4.331-9.459-18.381-14.409-33.649-11.853m-154.333.976c-.367.366-.667 19.041-.667 41.5V100h17V66h22.084l-.292-7.75-.292-7.75-10.75-.284L36 49.932V33h28V17H42.167c-12.009 0-22.134.3-22.5.667m63.083-.102c-.412.422-.75 19.143-.75 41.602V100h15.932l.284-10.75.284-10.75 3.249-.313c3.228-.312 3.283-.241 8.399 10.75l5.15 11.063h8.458c7.644 0 8.393-.168 7.787-1.75-.369-.963-2.738-6.355-5.264-11.982l-4.593-10.233 2.685-2.112c5.853-4.604 7.099-8.97 7.115-24.923.019-19.976-2.168-25.377-12-29.628-4.265-1.844-35.214-3.367-36.736-1.807m150.955.063c-.388.388-.705 19.08-.705 41.539V100h16V79.333c0-11.366.3-20.367.666-20 .366.366 4.615 9.553 9.442 20.416l8.776 19.751 8.069.291 8.069.29-.261-41.29L283.5 17.5l-7.75-.292-7.75-.292v20.742c0 12.704-.358 20.374-.924 19.792-.508-.522-4.719-9.725-9.358-20.45l-8.435-19.5-7.436-.288c-4.09-.159-7.754.029-8.142.416m68.718.711c-.289.754-.39 4.249-.224 7.766l.301 6.395 9.25.288 9.25.287V100h17V33.075l9.25-.287 9.25-.288v-15l-26.775-.266c-21.947-.219-26.87-.019-27.302 1.105M375 58.481V100h45V85h-29V66.066l11.25-.283 11.25-.283v-15l-11.25-.283-11.25-.283V33.055l14.25-.278 14.25-.277v-15l-22.25-.269-22.25-.269v41.519m67 .019V100h15.959l.271-20.672.27-20.672 9 20.653 9 20.653 8.261.019 8.261.019-.261-41.25-.261-41.25h-16l-.5 20.416-.5 20.417-8.895-20.667L457.71 17H442v41.5m75-.104V100l19.25-.006c25.38-.007 29.719-1.415 35.044-11.37 2.112-3.949 2.206-5.227 2.206-30.124v-26l-2.852-4.852c-5.014-8.53-9.848-10.025-33.898-10.481L517 16.791v41.605m80 .062V100h16.022l-.261-41.25-.261-41.25-7.75-.292-7.75-.292v41.542m75.627-36.905C671.182 24.137 670 26.723 670 27.3c0 .576 6.3 11.979 14 25.34s14 24.533 14 24.827c0 .293-6.187.539-13.75.547l-13.75.015-2.75 4.986c-1.513 2.742-2.75 5.211-2.75 5.486 0 .274 11.7.499 26 .499s26-.193 26-.429c0-.618-40.046-69.909-40.973-70.894-.426-.453-1.956 1.291-3.4 3.876m-499.713 2.345c-10.389 3.38-12.227 7.885-12.726 31.189C159.492 87.592 162.986 94 181.403 94c8.539 0 11.908-1.016 15.97-4.814 5.204-4.865 5.627-7.185 5.627-30.838 0-24.594-.715-27.644-7.565-32.281-3.898-2.639-17.154-3.916-22.521-2.169M26.455 25.257c-.98 2.553.03 68.247 1.045 67.995.604-.15 1.108-6.979 1.274-17.25L29.047 59h11.977C48.341 59 53 58.611 53 58s-4.667-1-12-1H29V26h13.941c8.215 0 14.195-.411 14.559-1 .402-.65-4.833-1-14.972-1-11.597 0-15.714.322-16.073 1.257M90 59.059c0 23.118.341 34.849 1 34.441.563-.348 1-5.177 1-11.059V72h17.573L115 83c2.985 6.05 5.781 11 6.214 11 1.253 0 1.071-.465-4.652-11.877l-5.438-10.843 3.748-1.123c7.987-2.393 10.796-10.073 9.826-26.863C123.772 27.271 119.785 24 101.184 24H90v35.059M240 59c0 22.339.357 35 .986 35 .622 0 1.084-11.845 1.25-32.099l.264-32.099 16.326 32.099C267.805 79.555 275.568 94 276.076 94c.548 0 .924-14.248.924-35 0-22.339-.357-35-.986-35-.623 0-1.084 11.897-1.25 32.25L274.5 88.5l-16.253-32.25C249.308 38.512 241.545 24 240.997 24c-.644 0-.997 12.404-.997 35m69-34c0 .596 3.829 1 9.487 1h9.486l.264 33.75c.169 21.658.621 33.75 1.263 33.75.642 0 1.094-12.092 1.263-33.75l.264-33.75h8.986c5.325 0 8.987-.408 8.987-1 0-.633-7.333-1-20-1s-20 .367-20 1m73 34v35h15.5c9.667 0 15.5-.376 15.5-1 0-.621-5.5-1-14.5-1H384V59h12c7.333 0 12-.389 12-1s-4.667-1-12-1h-12V26h14.5c9 0 14.5-.379 14.5-1 0-.624-5.833-1-15.5-1H382v35m67 0c0 22.667.352 35 1 35 .645 0 1.02-11.454 1.056-32.25l.057-32.25 16.186 32.25C476.202 79.488 483.826 94 484.243 94c.416 0 .757-15.75.757-35 0-22.334-.357-35-.986-35-.622 0-1.083 11.73-1.25 31.75L482.5 87.5l-16-31.739c-8.8-17.457-16.337-31.745-16.75-31.75-.413-.006-.75 15.739-.75 34.989m75 .092v35.091l14.75-.361c16.587-.406 20.95-1.788 25.416-8.049 2.244-3.147 2.346-4.098 2.641-24.73.487-34.112-1.838-37.026-29.557-37.037L524 24v35.092M604 59c0 22.667.352 35 1 35s1-12.333 1-35-.352-35-1-35-1 12.333-1 35M170.985 27.25c-7.772 3.939-8.434 6.13-8.812 29.188-.361 21.974.37 26.799 4.683 30.913 8.497 8.105 27.42 5.907 32.084-3.727 3.031-6.261 3.085-43.77.072-50.408-3.621-7.978-18.014-11.042-28.027-5.966M92 47.476v21.691l11.98-.333c17.023-.474 17.399-.884 17.849-19.455.509-20.98-.792-22.605-18.579-23.211L92 25.784v21.692m434 11.526v33.194l13.25-.348c15.054-.395 19.452-1.875 23.566-7.931 3.382-4.978 3.041-45.957-.421-50.596-4.285-5.744-7.584-6.788-22.645-7.167L526 25.808v33.194m120.844 7.095L626.188 102h12.529l14.392-24.996C661.024 63.256 667.725 52.009 668 52.01c.275.001 3.425 5.171 7 11.49l6.5 11.489 6.349.005 6.349.006-1.999-3.388c-1.1-1.864-6.607-11.426-12.238-21.25-5.631-9.824-10.739-18.381-11.35-19.015-.824-.856-6.441 8.111-21.767 34.75M173.016 35.83c-2.154 2.154-2.998 4.181-3.537 8.488-1.048 8.395-.12 32.769 1.35 35.432 3.57 6.469 14.145 7.738 19.538 2.345l3.133-3.133V38.836l-3.266-2.918c-4.704-4.203-13.06-4.246-17.218-.088M533 59.099v26.1l8.982-.35c8.606-.334 9.118-.485 12.25-3.616l3.268-3.266.327-16.734c.499-25.558-1.065-28.222-16.577-28.229L533 33v26.099M98 48v14h5.865c10.063 0 13.607-6.003 11.569-19.595C114.409 35.572 112.364 34 104.5 34H98v14m556.728 30.956c-7 12.077-12.728 22.202-12.728 22.5 0 .299 18.684.544 41.52.544h41.52l-2.997-5.25-2.998-5.25-29.023-.265C674.06 91.089 661 90.691 661 90.35c0-.341 2.947-5.695 6.549-11.897l6.548-11.277-2.798-5.074c-1.54-2.79-3.034-5.08-3.321-5.088-.287-.008-6.249 9.866-13.25 21.942" fill-rule="evenodd"/>
</svg>